PathFileType	4	(X/Y/Z)	C:/Users/opensim2020/Desktop/walking_exp_matlab/subject01_walking05_straight_02.trc	
DataRate	CameraRate	NumFrames	NumMarkers	Units	OrigDataRate	OrigDataStartFrame	OrigNumFrames	
100.00	100.00	4	43	mm	100.00	1629	205	
Frame#	Time	LFHD			RFHD			LBHD			RBHD			C7			T10			CLAV			STRN			RBAK			LSHO			LUPA			LELB			LFRM			LWRA			LWRB			LFIN			RSHO			RUPA			RELB			RFRM			RWRA			RWRB			RFIN			LASI			RASI			LPSI			RPSI			LTHI			LKNE			LTIB			LANK			LHEE			LTOE			RTHI			RKNE			RTIB			RANK			RHEE			RTOE			*39			*40			*41			*42			
		X1	Y1	Z1	X2	Y2	Z2	X3	Y3	Z3	X4	Y4	Z4	X5	Y5	Z5	X6	Y6	Z6	X7	Y7	Z7	X8	Y8	Z8	X9	Y9	Z9	X10	Y10	Z10	X11	Y11	Z11	X12	Y12	Z12	X13	Y13	Z13	X14	Y14	Z14	X15	Y15	Z15	X16	Y16	Z16	X17	Y17	Z17	X18	Y18	Z18	X19	Y19	Z19	X20	Y20	Z20	X21	Y21	Z21	X22	Y22	Z22	X23	Y23	Z23	X24	Y24	Z24	X25	Y25	Z25	X26	Y26	Z26	X27	Y27	Z27	X28	Y28	Z28	X29	Y29	Z29	X30	Y30	Z30	X31	Y31	Z31	X32	Y32	Z32	X33	Y33	Z33	X34	Y34	Z34	X35	Y35	Z35	X36	Y36	Z36	X37	Y37	Z37	X38	Y38	Z38	X39	Y39	Z39	X40	Y40	Z40	X41	Y41	Z41	X42	Y42	Z42	X43	Y43	Z43	

154	1.530	1518.40234	-426.53940	1650.17981	1404.08289	-437.66797	1654.23926	1513.70740	-306.37967	1615.02246	1392.48499	-314.67081	1618.82336	1471.50256	-249.03470	1421.31787	1453.82922	-210.30295	1127.42554	1468.28455	-392.30374	1347.64783	1473.56042	-431.38864	1194.33655	1393.35083	-191.99245	1225.83752	1629.04688	-329.79822	1380.35486	1725.88953	-317.80728	1205.02295	1751.77527	-338.66852	1054.80859	1782.92700	-433.70425	990.43817	1765.82581	-564.70880	946.11169	1797.28247	-525.52002	912.38904	1810.19836	-606.38507	893.94244	1316.22974	-327.58209	1380.10974	1223.54004	-239.97328	1187.90527	1223.18677	-221.24216	1065.55823	1190.77771	-223.94167	945.67126	1202.23511	-282.18924	815.26868	1167.67310	-236.40617	825.39545	1168.97974	-256.53940	740.95905	1568.29553	-373.58356	918.09058	1351.98560	-392.68448	923.23096	1494.42407	-192.90419	933.22760	1350.56226	-207.74753	933.12695	1603.71619	-280.67615	591.63470	1582.34680	-241.86047	460.10068	1582.16699	-145.49956	295.34869	1518.60144	-67.54543	90.90761	1464.27478	-18.91018	73.46851	1523.25464	-205.94525	31.82437	1286.24548	-409.28830	594.98651	1324.48035	-467.45676	452.81934	1321.13245	-476.73438	280.27097	1370.19897	-539.52899	79.41997	1425.99585	-511.79782	29.20560	1367.72815	-685.35590	85.77633	1427.21790	-428.27261	1688.63586	-3101.93945	1973.17651	1023.57184	-3140.70483	2012.57739	1022.03900			 
155	1.540	1516.82373	-436.66281	1649.39319	1402.50452	-447.80750	1653.38208	1512.25793	-316.50180	1614.32947	1391.02771	-324.70529	1618.01892	1470.21973	-259.04822	1420.48938	1453.01257	-220.64256	1126.43250	1466.98145	-402.33197	1346.94531	1472.38660	-441.49802	1193.65186	1392.47717	-202.06914	1224.79626	1627.71631	-339.96402	1379.78784	1725.00439	-328.06934	1204.88257	1751.72485	-349.04080	1054.88635	1782.48120	-444.41595	990.72266	1764.70654	-575.37866	946.64825	1796.52917	-536.55408	912.96320	1808.96106	-617.51819	894.82605	1315.08008	-337.19623	1378.77930	1222.62280	-249.77559	1186.57898	1222.45752	-231.02042	1064.23291	1190.25403	-233.52682	944.40979	1202.00317	-290.97678	813.71594	1167.40063	-245.52036	824.09564	1168.66895	-265.55148	739.56641	1567.89941	-384.20352	917.42340	1351.43384	-403.49994	922.38715	1493.76392	-203.64842	932.31433	1349.94421	-218.47974	931.98914	1603.87793	-290.20651	591.40332	1582.89941	-250.39012	459.99231	1582.93005	-151.26787	296.78391	1519.82385	-69.17863	93.78590	1465.55554	-20.06550	77.59666	1523.41431	-206.00545	31.56366	1287.57129	-420.05911	593.87152	1325.75378	-477.44394	451.79022	1323.28516	-487.16766	279.31750	1373.00220	-550.30243	78.38876	1429.28723	-522.96039	28.36899	1369.98047	-695.99652	85.05544	1425.59656	-438.32849	1687.78442	-3101.93652	1973.01233	1023.80560	-3140.61157	2012.55566	1021.95074			 
156	1.550	1515.14722	-446.80441	1648.68018	1400.80408	-457.83307	1652.53967	1510.66602	-326.62286	1613.66394	1389.41333	-334.77341	1617.22449	1468.85632	-269.09903	1419.65454	1452.22937	-231.09657	1125.49597	1465.51868	-412.48141	1346.32825	1471.17358	-451.90091	1193.08008	1391.57190	-212.17087	1223.74268	1626.32092	-350.18488	1379.37061	1723.96838	-338.24768	1204.75549	1751.41968	-359.24164	1054.92200	1781.83264	-454.75000	990.79297	1763.52356	-585.69946	946.87335	1795.57166	-547.07678	913.17883	1807.59399	-628.09528	895.03815	1313.69519	-346.81796	1377.74805	1221.66235	-259.68381	1185.31958	1221.65479	-240.95219	1062.99011	1189.62769	-243.21373	943.12146	1201.24866	-300.91928	812.46912	1166.79871	-255.12537	822.77087	1168.19714	-274.83591	738.17407	1567.43628	-395.08597	916.92371	1350.79370	-414.51151	921.70807	1493.20020	-214.48413	931.51477	1349.42712	-229.23886	930.83868	1604.00928	-300.21310	591.06818	1583.45825	-259.53708	459.75751	1583.82898	-157.24028	298.40936	1521.08984	-70.95160	96.74767	1467.13037	-21.28762	81.83790	1523.67078	-206.17484	31.55325	1289.08179	-431.57715	593.20471	1326.87927	-488.02533	450.75998	1325.35889	-496.80130	277.51950	1376.36670	-558.67328	76.61164	1432.76868	-531.54041	27.23321	1372.05688	-704.44562	83.00654	1423.96277	-448.55331	1687.04663	-3101.90210	1973.08398	1023.14319	-3140.52002	2012.62598	1022.13409			 
157	1.560	1513.40735	-456.88593	1647.90015	1399.04565	-467.90454	1651.70813	1509.02551	-336.66693	1612.94519	1387.71753	-344.75342	1616.54211	1467.37634	-279.12546	1418.70410	1451.42822	-241.74261	1124.48181	1463.91492	-422.53592	1345.58398	1469.75842	-462.20822	1192.42468	1390.63208	-222.43181	1222.62244	1624.72510	-360.50589	1378.88513	1722.77173	-348.38290	1204.59644	1750.89124	-369.23874	1054.97473	1781.00684	-464.79196	990.57910	1762.25098	-595.64166	946.62854	1794.50293	-557.14587	912.99500	1806.22656	-638.16223	894.91638	1312.21484	-356.52917	1376.98853	1220.56104	-269.68768	1184.05859	1220.80383	-251.05600	1061.79834	1188.86658	-253.18611	941.90082	1200.56128	-310.67856	811.14465	1166.21326	-264.71945	821.49445	1167.72607	-284.53659	736.94135	1566.87439	-406.31760	916.33636	1350.06506	-425.64865	921.03967	1492.65833	-225.72656	930.68890	1348.98230	-240.32312	929.66333	1604.18262	-310.68637	590.55255	1584.03333	-269.31448	459.39087	1584.73315	-163.93294	299.83945	1522.54968	-73.03768	99.89166	1468.80237	-22.90779	86.51572	1523.98401	-206.34804	31.49191	1290.48962	-443.41974	592.42706	1328.18420	-499.02451	449.78494	1327.42969	-506.18793	275.89081	1379.38501	-565.20496	74.72315	1436.19653	-537.32355	26.28472	1373.97729	-710.75824	79.48726	1422.11780	-458.51025	1686.18616	-3101.82813	1973.11951	1023.40417	-3140.76001	2012.47229	1021.97601			 
